<svg id="Layer_1" data-name="Layer 1" xmlns="http://www.w3.org/2000/svg" viewBox="0 0 50 50"><defs><style>.cls-1{fill:#1a1a1a;opacity:0;}.cls-2{fill:#fff;}.cls-3{fill:none;stroke:#fff;stroke-miterlimit:10;stroke-width:2px;}</style></defs><title>react</title><rect class="cls-1" width="50" height="50"/><circle class="cls-2" cx="25" cy="24.96" r="4.4"/><path class="cls-3" d="M25,16a49.3,49.3,0,0,1,15.55,2.28C45.54,20,48.6,22.6,48.6,25s-3.25,5.22-8.6,7A49.44,49.44,0,0,1,25,34,49.48,49.48,0,0,1,9.7,31.94c-5.18-1.77-8.3-4.57-8.3-7S4.33,20,9.25,18.32A49.75,49.75,0,0,1,25,16Z"/><path class="cls-3" d="M17.21,20.51A49.33,49.33,0,0,1,26.94,8.18c4-3.47,7.77-4.82,9.82-3.65s2.9,5.43,1.76,11a49.71,49.71,0,0,1-5.73,14,49.44,49.44,0,0,1-9.42,12.23c-4.12,3.6-8.11,4.9-10.2,3.7s-2.8-5-1.83-10.11a49.59,49.59,0,0,1,5.87-14.81Z"/><path class="cls-3" d="M17.21,29.51a49.54,49.54,0,0,1-5.82-14.59c-1-5.18-.29-9.14,1.75-10.32s6.15.19,10.37,3.94a49.64,49.64,0,0,1,9.28,12,49.6,49.6,0,0,1,5.88,14.28c1.07,5.37.2,9.47-1.88,10.68s-5.73-.07-9.68-3.47a49.86,49.86,0,0,1-9.9-12.47Z"/></svg>